<mxfile host="Electron" modified="2023-11-02T14:00:21.184Z" agent="Mozilla/5.0 (Macintosh; Intel Mac OS X 10_15_7) AppleWebKit/537.36 (KHTML, like Gecko) draw.io/22.0.3 Chrome/114.0.5735.289 Electron/25.8.4 Safari/537.36" etag="e34vQT2ZyCcTvA1mgDjU" version="22.0.3" type="device">
  <diagram name="Page-1" id="_lqPYmAU1KwCuKE_Vca8">
    <mxGraphModel dx="906" dy="674" grid="1" gridSize="10" guides="1" tooltips="1" connect="1" arrows="1" fold="1" page="1" pageScale="1" pageWidth="827" pageHeight="1169" math="0" shadow="0">
      <root>
        <mxCell id="0" />
        <mxCell id="1" parent="0" />
        <mxCell id="ER2RMjXM4kwSJIYZ8Odj-1" value="&amp;nbsp;Integration &lt;br style=&quot;font-size: 16px;&quot;&gt;&amp;nbsp;styles" style="rounded=0;whiteSpace=wrap;html=1;strokeColor=#C2C2C2;fontSize=16;align=left;verticalAlign=top;fontColor=#666666;" vertex="1" parent="1">
          <mxGeometry x="30" y="30" width="840" height="120" as="geometry" />
        </mxCell>
        <mxCell id="ER2RMjXM4kwSJIYZ8Odj-2" value="&amp;nbsp;Use case&lt;br&gt;&amp;nbsp;patterns" style="rounded=0;whiteSpace=wrap;html=1;strokeColor=#C2C2C2;fontSize=16;align=left;verticalAlign=top;fontColor=#666666;" vertex="1" parent="1">
          <mxGeometry x="30" y="190" width="840" height="120" as="geometry" />
        </mxCell>
        <mxCell id="ER2RMjXM4kwSJIYZ8Odj-3" value="&amp;nbsp;Integration&lt;br&gt;&amp;nbsp;technologues" style="rounded=0;whiteSpace=wrap;html=1;strokeColor=#C2C2C2;fontSize=16;align=left;verticalAlign=top;fontColor=#666666;" vertex="1" parent="1">
          <mxGeometry x="30" y="353.5" width="840" height="166.5" as="geometry" />
        </mxCell>
        <mxCell id="ER2RMjXM4kwSJIYZ8Odj-4" style="edgeStyle=none;shape=connector;rounded=0;orthogonalLoop=1;jettySize=auto;html=1;entryX=0.5;entryY=0;entryDx=0;entryDy=0;labelBackgroundColor=default;strokeColor=#C2C2C2;strokeWidth=2;align=center;verticalAlign=middle;fontFamily=Helvetica;fontSize=11;fontColor=default;startArrow=none;startFill=0;endArrow=none;endFill=0;" edge="1" parent="1" target="ER2RMjXM4kwSJIYZ8Odj-11">
          <mxGeometry relative="1" as="geometry">
            <mxPoint x="150" y="130" as="sourcePoint" />
          </mxGeometry>
        </mxCell>
        <mxCell id="ER2RMjXM4kwSJIYZ8Odj-5" value="&lt;font style=&quot;font-size: 14px;&quot;&gt;Process Integration&lt;/font&gt;" style="rounded=0;whiteSpace=wrap;html=1;fontColor=#FFFFFF;fillColor=#4FB81C;strokeColor=#4FB81C;" vertex="1" parent="1">
          <mxGeometry x="90" y="70" width="120" height="60" as="geometry" />
        </mxCell>
        <mxCell id="ER2RMjXM4kwSJIYZ8Odj-6" value="&lt;font style=&quot;font-size: 14px;&quot;&gt;Data &lt;br&gt;Integration&lt;/font&gt;" style="rounded=0;whiteSpace=wrap;html=1;fontColor=#FFFFFF;fillColor=#F0AB00;strokeColor=#F0AB00;" vertex="1" parent="1">
          <mxGeometry x="220" y="70" width="120" height="60" as="geometry" />
        </mxCell>
        <mxCell id="ER2RMjXM4kwSJIYZ8Odj-7" value="&lt;font style=&quot;font-size: 14px;&quot;&gt;Analytics Integration&lt;/font&gt;" style="rounded=0;whiteSpace=wrap;html=1;fontColor=#FFFFFF;fillColor=#4DC5FE;strokeColor=#4DC5FE;" vertex="1" parent="1">
          <mxGeometry x="350" y="70" width="120" height="60" as="geometry" />
        </mxCell>
        <mxCell id="ER2RMjXM4kwSJIYZ8Odj-8" value="&lt;font style=&quot;font-size: 14px;&quot;&gt;User &lt;br&gt;Integration&lt;/font&gt;" style="rounded=0;whiteSpace=wrap;html=1;fontColor=#FFFFFF;fillColor=#0275CB;strokeColor=#0275CB;" vertex="1" parent="1">
          <mxGeometry x="480" y="70" width="120" height="60" as="geometry" />
        </mxCell>
        <mxCell id="ER2RMjXM4kwSJIYZ8Odj-9" value="&lt;font style=&quot;font-size: 14px;&quot;&gt;Thing &lt;br&gt;Integration&lt;/font&gt;" style="rounded=0;whiteSpace=wrap;html=1;fontColor=#FFFFFF;fillColor=#E35500;strokeColor=#E35500;" vertex="1" parent="1">
          <mxGeometry x="610" y="70" width="120" height="60" as="geometry" />
        </mxCell>
        <mxCell id="ER2RMjXM4kwSJIYZ8Odj-10" value="&lt;font style=&quot;font-size: 14px;&quot;&gt;Cross Use&lt;br&gt;Cases&lt;br&gt;&lt;/font&gt;" style="rounded=0;whiteSpace=wrap;html=1;fontColor=#FFFFFF;fillColor=#800180;strokeColor=#800180;" vertex="1" parent="1">
          <mxGeometry x="740" y="70" width="120" height="60" as="geometry" />
        </mxCell>
        <mxCell id="ER2RMjXM4kwSJIYZ8Odj-11" value="&lt;div style=&quot;font-size: 14px;&quot;&gt;P1&lt;/div&gt;" style="rounded=0;whiteSpace=wrap;html=1;fontColor=#000000;fillColor=#D9EDCB;strokeColor=#D9EDCB;align=center;verticalAlign=middle;fontSize=14;" vertex="1" parent="1">
          <mxGeometry x="95" y="240" width="30" height="40" as="geometry" />
        </mxCell>
        <mxCell id="ER2RMjXM4kwSJIYZ8Odj-12" value="&lt;div style=&quot;font-size: 14px;&quot;&gt;P2&lt;/div&gt;" style="rounded=0;whiteSpace=wrap;html=1;fontColor=#000000;fillColor=#D9EDCB;strokeColor=#D9EDCB;align=center;verticalAlign=middle;fontSize=14;" vertex="1" parent="1">
          <mxGeometry x="135" y="240" width="30" height="40" as="geometry" />
        </mxCell>
        <mxCell id="ER2RMjXM4kwSJIYZ8Odj-13" value="&lt;div style=&quot;font-size: 14px;&quot;&gt;...&lt;/div&gt;" style="rounded=0;whiteSpace=wrap;html=1;fontColor=#000000;fillColor=#D9EDCB;strokeColor=#D9EDCB;align=center;verticalAlign=middle;fontSize=14;" vertex="1" parent="1">
          <mxGeometry x="175" y="240" width="30" height="40" as="geometry" />
        </mxCell>
        <mxCell id="ER2RMjXM4kwSJIYZ8Odj-14" value="&lt;div style=&quot;font-size: 14px;&quot;&gt;D1&lt;/div&gt;" style="rounded=0;whiteSpace=wrap;html=1;fontColor=#000000;fillColor=#FEEFC9;strokeColor=#FEEFC9;align=center;verticalAlign=middle;fontSize=14;" vertex="1" parent="1">
          <mxGeometry x="225" y="240" width="30" height="40" as="geometry" />
        </mxCell>
        <mxCell id="ER2RMjXM4kwSJIYZ8Odj-15" value="&lt;div style=&quot;font-size: 14px;&quot;&gt;D2&lt;/div&gt;" style="rounded=0;whiteSpace=wrap;html=1;fontColor=#000000;fillColor=#FEEFC9;strokeColor=#FEEFC9;align=center;verticalAlign=middle;fontSize=14;" vertex="1" parent="1">
          <mxGeometry x="265" y="240" width="30" height="40" as="geometry" />
        </mxCell>
        <mxCell id="ER2RMjXM4kwSJIYZ8Odj-16" value="&lt;div style=&quot;font-size: 14px;&quot;&gt;...&lt;/div&gt;" style="rounded=0;whiteSpace=wrap;html=1;fontColor=#000000;fillColor=#FEEFC9;strokeColor=#FEEFC9;align=center;verticalAlign=middle;fontSize=14;" vertex="1" parent="1">
          <mxGeometry x="305" y="240" width="30" height="40" as="geometry" />
        </mxCell>
        <mxCell id="ER2RMjXM4kwSJIYZ8Odj-17" value="&lt;div style=&quot;font-size: 14px;&quot;&gt;A1&lt;/div&gt;" style="rounded=0;whiteSpace=wrap;html=1;fontColor=#000000;fillColor=#D5F1FF;strokeColor=#D5F1FF;align=center;verticalAlign=middle;fontSize=14;" vertex="1" parent="1">
          <mxGeometry x="355" y="240" width="30" height="40" as="geometry" />
        </mxCell>
        <mxCell id="ER2RMjXM4kwSJIYZ8Odj-18" value="&lt;div style=&quot;font-size: 14px;&quot;&gt;A2&lt;/div&gt;" style="rounded=0;whiteSpace=wrap;html=1;fontColor=#000000;fillColor=#D5F1FF;strokeColor=#D5F1FF;align=center;verticalAlign=middle;fontSize=14;" vertex="1" parent="1">
          <mxGeometry x="395" y="240" width="30" height="40" as="geometry" />
        </mxCell>
        <mxCell id="ER2RMjXM4kwSJIYZ8Odj-19" value="&lt;div style=&quot;font-size: 14px;&quot;&gt;...&lt;/div&gt;" style="rounded=0;whiteSpace=wrap;html=1;fontColor=#000000;fillColor=#D5F1FF;strokeColor=#D5F1FF;align=center;verticalAlign=middle;fontSize=14;" vertex="1" parent="1">
          <mxGeometry x="435" y="240" width="30" height="40" as="geometry" />
        </mxCell>
        <mxCell id="ER2RMjXM4kwSJIYZ8Odj-20" value="&lt;div style=&quot;font-size: 14px;&quot;&gt;U1&lt;/div&gt;" style="rounded=0;whiteSpace=wrap;html=1;fontColor=#000000;fillColor=#C1E5FF;strokeColor=#C1E5FF;align=center;verticalAlign=middle;fontSize=14;" vertex="1" parent="1">
          <mxGeometry x="485" y="240" width="30" height="40" as="geometry" />
        </mxCell>
        <mxCell id="ER2RMjXM4kwSJIYZ8Odj-21" value="&lt;div style=&quot;font-size: 14px;&quot;&gt;U2&lt;/div&gt;" style="rounded=0;whiteSpace=wrap;html=1;fontColor=#000000;fillColor=#C1E5FF;strokeColor=#C1E5FF;align=center;verticalAlign=middle;fontSize=14;" vertex="1" parent="1">
          <mxGeometry x="525" y="240" width="30" height="40" as="geometry" />
        </mxCell>
        <mxCell id="ER2RMjXM4kwSJIYZ8Odj-22" value="&lt;div style=&quot;font-size: 14px;&quot;&gt;...&lt;/div&gt;" style="rounded=0;whiteSpace=wrap;html=1;fontColor=#000000;fillColor=#C1E5FF;strokeColor=#C1E5FF;align=center;verticalAlign=middle;fontSize=14;" vertex="1" parent="1">
          <mxGeometry x="565" y="240" width="30" height="40" as="geometry" />
        </mxCell>
        <mxCell id="ER2RMjXM4kwSJIYZ8Odj-23" value="&lt;div style=&quot;font-size: 14px;&quot;&gt;T1&lt;/div&gt;" style="rounded=0;whiteSpace=wrap;html=1;fontColor=#000000;fillColor=#FEDCC6;strokeColor=#FEDCC6;align=center;verticalAlign=middle;fontSize=14;" vertex="1" parent="1">
          <mxGeometry x="615" y="240" width="30" height="40" as="geometry" />
        </mxCell>
        <mxCell id="ER2RMjXM4kwSJIYZ8Odj-24" value="&lt;div style=&quot;font-size: 14px;&quot;&gt;T2&lt;/div&gt;" style="rounded=0;whiteSpace=wrap;html=1;fontColor=#000000;fillColor=#FEDCC6;strokeColor=#FEDCC6;align=center;verticalAlign=middle;fontSize=14;" vertex="1" parent="1">
          <mxGeometry x="655" y="240" width="30" height="40" as="geometry" />
        </mxCell>
        <mxCell id="ER2RMjXM4kwSJIYZ8Odj-25" value="&lt;div style=&quot;font-size: 14px;&quot;&gt;...&lt;/div&gt;" style="rounded=0;whiteSpace=wrap;html=1;fontColor=#000000;fillColor=#FEDCC6;strokeColor=#FEDCC6;align=center;verticalAlign=middle;fontSize=14;" vertex="1" parent="1">
          <mxGeometry x="695" y="240" width="30" height="40" as="geometry" />
        </mxCell>
        <mxCell id="ER2RMjXM4kwSJIYZ8Odj-26" value="&lt;div style=&quot;font-size: 14px;&quot;&gt;C1&lt;/div&gt;" style="rounded=0;whiteSpace=wrap;html=1;fontColor=#000000;fillColor=#F2BBFA;strokeColor=#F2BBFA;align=center;verticalAlign=middle;fontSize=14;" vertex="1" parent="1">
          <mxGeometry x="745" y="240" width="30" height="40" as="geometry" />
        </mxCell>
        <mxCell id="ER2RMjXM4kwSJIYZ8Odj-27" value="&lt;div style=&quot;font-size: 14px;&quot;&gt;C2&lt;/div&gt;" style="rounded=0;whiteSpace=wrap;html=1;fontColor=#000000;fillColor=#F2BBFA;strokeColor=#F2BBFA;align=center;verticalAlign=middle;fontSize=14;" vertex="1" parent="1">
          <mxGeometry x="785" y="240" width="30" height="40" as="geometry" />
        </mxCell>
        <mxCell id="ER2RMjXM4kwSJIYZ8Odj-28" value="&lt;div style=&quot;font-size: 14px;&quot;&gt;...&lt;/div&gt;" style="rounded=0;whiteSpace=wrap;html=1;fontColor=#000000;fillColor=#F2BBFA;strokeColor=#F2BBFA;align=center;verticalAlign=middle;fontSize=14;" vertex="1" parent="1">
          <mxGeometry x="825" y="240" width="30" height="40" as="geometry" />
        </mxCell>
        <mxCell id="ER2RMjXM4kwSJIYZ8Odj-29" value="" style="endArrow=block;html=1;rounded=0;strokeWidth=5;strokeColor=#C2C2C2;endFill=1;startArrow=block;startFill=1;opacity=50;" edge="1" parent="1">
          <mxGeometry width="50" height="50" relative="1" as="geometry">
            <mxPoint x="900" y="30" as="sourcePoint" />
            <mxPoint x="900" y="320" as="targetPoint" />
          </mxGeometry>
        </mxCell>
        <mxCell id="ER2RMjXM4kwSJIYZ8Odj-30" value="Technology-&lt;br&gt;agnostic&lt;br&gt;concepts" style="text;html=1;strokeColor=none;fillColor=none;align=center;verticalAlign=middle;whiteSpace=wrap;rounded=0;fontColor=#737373;fontSize=16;" vertex="1" parent="1">
          <mxGeometry x="910" y="130" width="100" height="90" as="geometry" />
        </mxCell>
        <mxCell id="ER2RMjXM4kwSJIYZ8Odj-31" value="" style="endArrow=none;html=1;rounded=0;strokeWidth=5;strokeColor=#C2C2C2;endFill=0;startArrow=none;startFill=0;opacity=50;" edge="1" parent="1">
          <mxGeometry width="50" height="50" relative="1" as="geometry">
            <mxPoint x="150" y="333" as="sourcePoint" />
            <mxPoint x="870" y="333" as="targetPoint" />
          </mxGeometry>
        </mxCell>
        <mxCell id="ER2RMjXM4kwSJIYZ8Odj-32" value="Capabilities" style="text;html=1;strokeColor=none;fillColor=none;align=left;verticalAlign=middle;whiteSpace=wrap;rounded=0;fontColor=#737373;fontSize=19;" vertex="1" parent="1">
          <mxGeometry x="40" y="313.5" width="130" height="36.5" as="geometry" />
        </mxCell>
        <mxCell id="ER2RMjXM4kwSJIYZ8Odj-33" style="edgeStyle=none;shape=connector;rounded=0;orthogonalLoop=1;jettySize=auto;html=1;entryX=0.5;entryY=0;entryDx=0;entryDy=0;labelBackgroundColor=default;strokeColor=#C2C2C2;strokeWidth=2;align=center;verticalAlign=middle;fontFamily=Helvetica;fontSize=11;fontColor=default;startArrow=none;startFill=0;endArrow=none;endFill=0;" edge="1" parent="1" target="ER2RMjXM4kwSJIYZ8Odj-12">
          <mxGeometry relative="1" as="geometry">
            <mxPoint x="150" y="130" as="sourcePoint" />
            <mxPoint x="120" y="250" as="targetPoint" />
          </mxGeometry>
        </mxCell>
        <mxCell id="ER2RMjXM4kwSJIYZ8Odj-34" style="edgeStyle=none;shape=connector;rounded=0;orthogonalLoop=1;jettySize=auto;html=1;entryX=0.5;entryY=0;entryDx=0;entryDy=0;labelBackgroundColor=default;strokeColor=#C2C2C2;strokeWidth=2;align=center;verticalAlign=middle;fontFamily=Helvetica;fontSize=11;fontColor=default;startArrow=none;startFill=0;endArrow=none;endFill=0;exitX=0.5;exitY=1;exitDx=0;exitDy=0;" edge="1" parent="1" source="ER2RMjXM4kwSJIYZ8Odj-5" target="ER2RMjXM4kwSJIYZ8Odj-13">
          <mxGeometry relative="1" as="geometry">
            <mxPoint x="161" y="150" as="sourcePoint" />
            <mxPoint x="130" y="260" as="targetPoint" />
          </mxGeometry>
        </mxCell>
        <mxCell id="ER2RMjXM4kwSJIYZ8Odj-35" style="edgeStyle=none;shape=connector;rounded=0;orthogonalLoop=1;jettySize=auto;html=1;entryX=0.5;entryY=0;entryDx=0;entryDy=0;labelBackgroundColor=default;strokeColor=#C2C2C2;strokeWidth=2;align=center;verticalAlign=middle;fontFamily=Helvetica;fontSize=11;fontColor=default;startArrow=none;startFill=0;endArrow=none;endFill=0;" edge="1" parent="1">
          <mxGeometry relative="1" as="geometry">
            <mxPoint x="280" y="130" as="sourcePoint" />
            <mxPoint x="240" y="240" as="targetPoint" />
          </mxGeometry>
        </mxCell>
        <mxCell id="ER2RMjXM4kwSJIYZ8Odj-36" style="edgeStyle=none;shape=connector;rounded=0;orthogonalLoop=1;jettySize=auto;html=1;entryX=0.5;entryY=0;entryDx=0;entryDy=0;labelBackgroundColor=default;strokeColor=#C2C2C2;strokeWidth=2;align=center;verticalAlign=middle;fontFamily=Helvetica;fontSize=11;fontColor=default;startArrow=none;startFill=0;endArrow=none;endFill=0;" edge="1" parent="1">
          <mxGeometry relative="1" as="geometry">
            <mxPoint x="280" y="130" as="sourcePoint" />
            <mxPoint x="280" y="240" as="targetPoint" />
          </mxGeometry>
        </mxCell>
        <mxCell id="ER2RMjXM4kwSJIYZ8Odj-37" style="edgeStyle=none;shape=connector;rounded=0;orthogonalLoop=1;jettySize=auto;html=1;entryX=0.5;entryY=0;entryDx=0;entryDy=0;labelBackgroundColor=default;strokeColor=#C2C2C2;strokeWidth=2;align=center;verticalAlign=middle;fontFamily=Helvetica;fontSize=11;fontColor=default;startArrow=none;startFill=0;endArrow=none;endFill=0;exitX=0.5;exitY=1;exitDx=0;exitDy=0;" edge="1" parent="1">
          <mxGeometry relative="1" as="geometry">
            <mxPoint x="280" y="130" as="sourcePoint" />
            <mxPoint x="320" y="240" as="targetPoint" />
          </mxGeometry>
        </mxCell>
        <mxCell id="ER2RMjXM4kwSJIYZ8Odj-38" style="edgeStyle=none;shape=connector;rounded=0;orthogonalLoop=1;jettySize=auto;html=1;entryX=0.5;entryY=0;entryDx=0;entryDy=0;labelBackgroundColor=default;strokeColor=#C2C2C2;strokeWidth=2;align=center;verticalAlign=middle;fontFamily=Helvetica;fontSize=11;fontColor=default;startArrow=none;startFill=0;endArrow=none;endFill=0;" edge="1" parent="1">
          <mxGeometry relative="1" as="geometry">
            <mxPoint x="410" y="130" as="sourcePoint" />
            <mxPoint x="370" y="240" as="targetPoint" />
          </mxGeometry>
        </mxCell>
        <mxCell id="ER2RMjXM4kwSJIYZ8Odj-39" style="edgeStyle=none;shape=connector;rounded=0;orthogonalLoop=1;jettySize=auto;html=1;entryX=0.5;entryY=0;entryDx=0;entryDy=0;labelBackgroundColor=default;strokeColor=#C2C2C2;strokeWidth=2;align=center;verticalAlign=middle;fontFamily=Helvetica;fontSize=11;fontColor=default;startArrow=none;startFill=0;endArrow=none;endFill=0;" edge="1" parent="1">
          <mxGeometry relative="1" as="geometry">
            <mxPoint x="410" y="130" as="sourcePoint" />
            <mxPoint x="410" y="240" as="targetPoint" />
          </mxGeometry>
        </mxCell>
        <mxCell id="ER2RMjXM4kwSJIYZ8Odj-40" style="edgeStyle=none;shape=connector;rounded=0;orthogonalLoop=1;jettySize=auto;html=1;entryX=0.5;entryY=0;entryDx=0;entryDy=0;labelBackgroundColor=default;strokeColor=#C2C2C2;strokeWidth=2;align=center;verticalAlign=middle;fontFamily=Helvetica;fontSize=11;fontColor=default;startArrow=none;startFill=0;endArrow=none;endFill=0;exitX=0.5;exitY=1;exitDx=0;exitDy=0;" edge="1" parent="1">
          <mxGeometry relative="1" as="geometry">
            <mxPoint x="410" y="130" as="sourcePoint" />
            <mxPoint x="450" y="240" as="targetPoint" />
          </mxGeometry>
        </mxCell>
        <mxCell id="ER2RMjXM4kwSJIYZ8Odj-41" style="edgeStyle=none;shape=connector;rounded=0;orthogonalLoop=1;jettySize=auto;html=1;entryX=0.5;entryY=0;entryDx=0;entryDy=0;labelBackgroundColor=default;strokeColor=#C2C2C2;strokeWidth=2;align=center;verticalAlign=middle;fontFamily=Helvetica;fontSize=11;fontColor=default;startArrow=none;startFill=0;endArrow=none;endFill=0;" edge="1" parent="1">
          <mxGeometry relative="1" as="geometry">
            <mxPoint x="540" y="130" as="sourcePoint" />
            <mxPoint x="500" y="240" as="targetPoint" />
          </mxGeometry>
        </mxCell>
        <mxCell id="ER2RMjXM4kwSJIYZ8Odj-42" style="edgeStyle=none;shape=connector;rounded=0;orthogonalLoop=1;jettySize=auto;html=1;entryX=0.5;entryY=0;entryDx=0;entryDy=0;labelBackgroundColor=default;strokeColor=#C2C2C2;strokeWidth=2;align=center;verticalAlign=middle;fontFamily=Helvetica;fontSize=11;fontColor=default;startArrow=none;startFill=0;endArrow=none;endFill=0;" edge="1" parent="1">
          <mxGeometry relative="1" as="geometry">
            <mxPoint x="540" y="130" as="sourcePoint" />
            <mxPoint x="540" y="240" as="targetPoint" />
          </mxGeometry>
        </mxCell>
        <mxCell id="ER2RMjXM4kwSJIYZ8Odj-43" style="edgeStyle=none;shape=connector;rounded=0;orthogonalLoop=1;jettySize=auto;html=1;entryX=0.5;entryY=0;entryDx=0;entryDy=0;labelBackgroundColor=default;strokeColor=#C2C2C2;strokeWidth=2;align=center;verticalAlign=middle;fontFamily=Helvetica;fontSize=11;fontColor=default;startArrow=none;startFill=0;endArrow=none;endFill=0;exitX=0.5;exitY=1;exitDx=0;exitDy=0;" edge="1" parent="1">
          <mxGeometry relative="1" as="geometry">
            <mxPoint x="540" y="130" as="sourcePoint" />
            <mxPoint x="580" y="240" as="targetPoint" />
          </mxGeometry>
        </mxCell>
        <mxCell id="ER2RMjXM4kwSJIYZ8Odj-44" style="edgeStyle=none;shape=connector;rounded=0;orthogonalLoop=1;jettySize=auto;html=1;entryX=0.5;entryY=0;entryDx=0;entryDy=0;labelBackgroundColor=default;strokeColor=#C2C2C2;strokeWidth=2;align=center;verticalAlign=middle;fontFamily=Helvetica;fontSize=11;fontColor=default;startArrow=none;startFill=0;endArrow=none;endFill=0;" edge="1" parent="1">
          <mxGeometry relative="1" as="geometry">
            <mxPoint x="675" y="130" as="sourcePoint" />
            <mxPoint x="635" y="240" as="targetPoint" />
          </mxGeometry>
        </mxCell>
        <mxCell id="ER2RMjXM4kwSJIYZ8Odj-45" style="edgeStyle=none;shape=connector;rounded=0;orthogonalLoop=1;jettySize=auto;html=1;entryX=0.5;entryY=0;entryDx=0;entryDy=0;labelBackgroundColor=default;strokeColor=#C2C2C2;strokeWidth=2;align=center;verticalAlign=middle;fontFamily=Helvetica;fontSize=11;fontColor=default;startArrow=none;startFill=0;endArrow=none;endFill=0;" edge="1" parent="1">
          <mxGeometry relative="1" as="geometry">
            <mxPoint x="675" y="130" as="sourcePoint" />
            <mxPoint x="675" y="240" as="targetPoint" />
          </mxGeometry>
        </mxCell>
        <mxCell id="ER2RMjXM4kwSJIYZ8Odj-46" style="edgeStyle=none;shape=connector;rounded=0;orthogonalLoop=1;jettySize=auto;html=1;entryX=0.5;entryY=0;entryDx=0;entryDy=0;labelBackgroundColor=default;strokeColor=#C2C2C2;strokeWidth=2;align=center;verticalAlign=middle;fontFamily=Helvetica;fontSize=11;fontColor=default;startArrow=none;startFill=0;endArrow=none;endFill=0;exitX=0.5;exitY=1;exitDx=0;exitDy=0;" edge="1" parent="1">
          <mxGeometry relative="1" as="geometry">
            <mxPoint x="675" y="130" as="sourcePoint" />
            <mxPoint x="715" y="240" as="targetPoint" />
          </mxGeometry>
        </mxCell>
        <mxCell id="ER2RMjXM4kwSJIYZ8Odj-47" style="edgeStyle=none;shape=connector;rounded=0;orthogonalLoop=1;jettySize=auto;html=1;entryX=0.5;entryY=0;entryDx=0;entryDy=0;labelBackgroundColor=default;strokeColor=#C2C2C2;strokeWidth=2;align=center;verticalAlign=middle;fontFamily=Helvetica;fontSize=11;fontColor=default;startArrow=none;startFill=0;endArrow=none;endFill=0;" edge="1" parent="1">
          <mxGeometry relative="1" as="geometry">
            <mxPoint x="800" y="130" as="sourcePoint" />
            <mxPoint x="760" y="240" as="targetPoint" />
          </mxGeometry>
        </mxCell>
        <mxCell id="ER2RMjXM4kwSJIYZ8Odj-48" style="edgeStyle=none;shape=connector;rounded=0;orthogonalLoop=1;jettySize=auto;html=1;entryX=0.5;entryY=0;entryDx=0;entryDy=0;labelBackgroundColor=default;strokeColor=#C2C2C2;strokeWidth=2;align=center;verticalAlign=middle;fontFamily=Helvetica;fontSize=11;fontColor=default;startArrow=none;startFill=0;endArrow=none;endFill=0;" edge="1" parent="1">
          <mxGeometry relative="1" as="geometry">
            <mxPoint x="800" y="130" as="sourcePoint" />
            <mxPoint x="800" y="240" as="targetPoint" />
          </mxGeometry>
        </mxCell>
        <mxCell id="ER2RMjXM4kwSJIYZ8Odj-49" style="edgeStyle=none;shape=connector;rounded=0;orthogonalLoop=1;jettySize=auto;html=1;entryX=0.5;entryY=0;entryDx=0;entryDy=0;labelBackgroundColor=default;strokeColor=#C2C2C2;strokeWidth=2;align=center;verticalAlign=middle;fontFamily=Helvetica;fontSize=11;fontColor=default;startArrow=none;startFill=0;endArrow=none;endFill=0;exitX=0.5;exitY=1;exitDx=0;exitDy=0;" edge="1" parent="1">
          <mxGeometry relative="1" as="geometry">
            <mxPoint x="800" y="130" as="sourcePoint" />
            <mxPoint x="840" y="240" as="targetPoint" />
          </mxGeometry>
        </mxCell>
        <mxCell id="ER2RMjXM4kwSJIYZ8Odj-50" value="" style="endArrow=block;html=1;rounded=0;strokeWidth=5;strokeColor=#C2C2C2;endFill=1;startArrow=block;startFill=1;opacity=50;" edge="1" parent="1">
          <mxGeometry width="50" height="50" relative="1" as="geometry">
            <mxPoint x="900" y="353.5" as="sourcePoint" />
            <mxPoint x="900" y="520" as="targetPoint" />
          </mxGeometry>
        </mxCell>
        <mxCell id="ER2RMjXM4kwSJIYZ8Odj-51" value="Technologies" style="text;html=1;strokeColor=none;fillColor=none;align=center;verticalAlign=middle;whiteSpace=wrap;rounded=0;fontColor=#737373;fontSize=16;" vertex="1" parent="1">
          <mxGeometry x="920" y="391.75" width="100" height="90" as="geometry" />
        </mxCell>
        <mxCell id="ER2RMjXM4kwSJIYZ8Odj-52" value="Customer context" style="text;html=1;strokeColor=none;fillColor=none;align=center;verticalAlign=middle;whiteSpace=wrap;rounded=0;fontColor=#737373;fontSize=16;" vertex="1" parent="1">
          <mxGeometry x="290" y="506.5" width="350" height="13.5" as="geometry" />
        </mxCell>
        <mxCell id="ER2RMjXM4kwSJIYZ8Odj-55" style="edgeStyle=none;shape=connector;rounded=0;orthogonalLoop=1;jettySize=auto;html=1;entryX=0.5;entryY=1;entryDx=0;entryDy=0;labelBackgroundColor=default;strokeColor=#C2C2C2;strokeWidth=2;align=center;verticalAlign=middle;fontFamily=Helvetica;fontSize=11;fontColor=default;startArrow=none;startFill=0;endArrow=none;endFill=0;exitX=0.5;exitY=0;exitDx=0;exitDy=0;" edge="1" parent="1" source="ER2RMjXM4kwSJIYZ8Odj-80" target="ER2RMjXM4kwSJIYZ8Odj-11">
          <mxGeometry relative="1" as="geometry">
            <mxPoint x="160" y="140" as="sourcePoint" />
            <mxPoint x="120" y="250" as="targetPoint" />
          </mxGeometry>
        </mxCell>
        <mxCell id="ER2RMjXM4kwSJIYZ8Odj-56" style="edgeStyle=none;shape=connector;rounded=0;orthogonalLoop=1;jettySize=auto;html=1;entryX=0.5;entryY=1;entryDx=0;entryDy=0;labelBackgroundColor=default;strokeColor=#C2C2C2;strokeWidth=2;align=center;verticalAlign=middle;fontFamily=Helvetica;fontSize=11;fontColor=default;startArrow=none;startFill=0;endArrow=none;endFill=0;" edge="1" parent="1" target="ER2RMjXM4kwSJIYZ8Odj-12">
          <mxGeometry relative="1" as="geometry">
            <mxPoint x="190" y="370" as="sourcePoint" />
            <mxPoint x="120" y="290" as="targetPoint" />
          </mxGeometry>
        </mxCell>
        <mxCell id="ER2RMjXM4kwSJIYZ8Odj-57" style="edgeStyle=none;shape=connector;rounded=0;orthogonalLoop=1;jettySize=auto;html=1;entryX=0.5;entryY=1;entryDx=0;entryDy=0;labelBackgroundColor=default;strokeColor=#C2C2C2;strokeWidth=2;align=center;verticalAlign=middle;fontFamily=Helvetica;fontSize=11;fontColor=default;startArrow=none;startFill=0;endArrow=none;endFill=0;exitX=0.5;exitY=0;exitDx=0;exitDy=0;" edge="1" parent="1" source="ER2RMjXM4kwSJIYZ8Odj-81" target="ER2RMjXM4kwSJIYZ8Odj-11">
          <mxGeometry relative="1" as="geometry">
            <mxPoint x="200" y="380" as="sourcePoint" />
            <mxPoint x="120" y="290" as="targetPoint" />
          </mxGeometry>
        </mxCell>
        <mxCell id="ER2RMjXM4kwSJIYZ8Odj-58" style="edgeStyle=none;shape=connector;rounded=0;orthogonalLoop=1;jettySize=auto;html=1;entryX=0.5;entryY=1;entryDx=0;entryDy=0;labelBackgroundColor=default;strokeColor=#C2C2C2;strokeWidth=2;align=center;verticalAlign=middle;fontFamily=Helvetica;fontSize=11;fontColor=default;startArrow=none;startFill=0;endArrow=none;endFill=0;exitX=0.5;exitY=0;exitDx=0;exitDy=0;" edge="1" parent="1" source="ER2RMjXM4kwSJIYZ8Odj-81" target="ER2RMjXM4kwSJIYZ8Odj-13">
          <mxGeometry relative="1" as="geometry">
            <mxPoint x="308" y="380" as="sourcePoint" />
            <mxPoint x="120" y="290" as="targetPoint" />
          </mxGeometry>
        </mxCell>
        <mxCell id="ER2RMjXM4kwSJIYZ8Odj-59" style="edgeStyle=none;shape=connector;rounded=0;orthogonalLoop=1;jettySize=auto;html=1;entryX=0.5;entryY=1;entryDx=0;entryDy=0;labelBackgroundColor=default;strokeColor=#C2C2C2;strokeWidth=2;align=center;verticalAlign=middle;fontFamily=Helvetica;fontSize=11;fontColor=default;startArrow=none;startFill=0;endArrow=none;endFill=0;exitX=0.5;exitY=0;exitDx=0;exitDy=0;" edge="1" parent="1" source="ER2RMjXM4kwSJIYZ8Odj-82" target="ER2RMjXM4kwSJIYZ8Odj-13">
          <mxGeometry relative="1" as="geometry">
            <mxPoint x="308" y="380" as="sourcePoint" />
            <mxPoint x="200" y="290" as="targetPoint" />
          </mxGeometry>
        </mxCell>
        <mxCell id="ER2RMjXM4kwSJIYZ8Odj-60" style="edgeStyle=none;shape=connector;rounded=0;orthogonalLoop=1;jettySize=auto;html=1;entryX=0.5;entryY=1;entryDx=0;entryDy=0;labelBackgroundColor=default;strokeColor=#C2C2C2;strokeWidth=2;align=center;verticalAlign=middle;fontFamily=Helvetica;fontSize=11;fontColor=default;startArrow=none;startFill=0;endArrow=none;endFill=0;exitX=0.5;exitY=0;exitDx=0;exitDy=0;" edge="1" parent="1" source="ER2RMjXM4kwSJIYZ8Odj-80" target="ER2RMjXM4kwSJIYZ8Odj-14">
          <mxGeometry relative="1" as="geometry">
            <mxPoint x="408" y="380" as="sourcePoint" />
            <mxPoint x="200" y="290" as="targetPoint" />
          </mxGeometry>
        </mxCell>
        <mxCell id="ER2RMjXM4kwSJIYZ8Odj-61" style="edgeStyle=none;shape=connector;rounded=0;orthogonalLoop=1;jettySize=auto;html=1;entryX=0.5;entryY=1;entryDx=0;entryDy=0;labelBackgroundColor=default;strokeColor=#C2C2C2;strokeWidth=2;align=center;verticalAlign=middle;fontFamily=Helvetica;fontSize=11;fontColor=default;startArrow=none;startFill=0;endArrow=none;endFill=0;exitX=0.5;exitY=0;exitDx=0;exitDy=0;" edge="1" parent="1" source="ER2RMjXM4kwSJIYZ8Odj-83" target="ER2RMjXM4kwSJIYZ8Odj-15">
          <mxGeometry relative="1" as="geometry">
            <mxPoint x="200" y="380" as="sourcePoint" />
            <mxPoint x="250" y="290" as="targetPoint" />
          </mxGeometry>
        </mxCell>
        <mxCell id="ER2RMjXM4kwSJIYZ8Odj-62" style="edgeStyle=none;shape=connector;rounded=0;orthogonalLoop=1;jettySize=auto;html=1;entryX=0.5;entryY=1;entryDx=0;entryDy=0;labelBackgroundColor=default;strokeColor=#C2C2C2;strokeWidth=2;align=center;verticalAlign=middle;fontFamily=Helvetica;fontSize=11;fontColor=default;startArrow=none;startFill=0;endArrow=none;endFill=0;exitX=0.5;exitY=0;exitDx=0;exitDy=0;" edge="1" parent="1" source="ER2RMjXM4kwSJIYZ8Odj-83" target="ER2RMjXM4kwSJIYZ8Odj-16">
          <mxGeometry relative="1" as="geometry">
            <mxPoint x="518" y="380" as="sourcePoint" />
            <mxPoint x="290" y="290" as="targetPoint" />
          </mxGeometry>
        </mxCell>
        <mxCell id="ER2RMjXM4kwSJIYZ8Odj-63" style="edgeStyle=none;shape=connector;rounded=0;orthogonalLoop=1;jettySize=auto;html=1;entryX=0.5;entryY=1;entryDx=0;entryDy=0;labelBackgroundColor=default;strokeColor=#C2C2C2;strokeWidth=2;align=center;verticalAlign=middle;fontFamily=Helvetica;fontSize=11;fontColor=default;startArrow=none;startFill=0;endArrow=none;endFill=0;exitX=0.5;exitY=0;exitDx=0;exitDy=0;" edge="1" parent="1" source="ER2RMjXM4kwSJIYZ8Odj-81" target="ER2RMjXM4kwSJIYZ8Odj-17">
          <mxGeometry relative="1" as="geometry">
            <mxPoint x="308" y="380" as="sourcePoint" />
            <mxPoint x="120" y="290" as="targetPoint" />
          </mxGeometry>
        </mxCell>
        <mxCell id="ER2RMjXM4kwSJIYZ8Odj-64" style="edgeStyle=none;shape=connector;rounded=0;orthogonalLoop=1;jettySize=auto;html=1;entryX=0.5;entryY=1;entryDx=0;entryDy=0;labelBackgroundColor=default;strokeColor=#C2C2C2;strokeWidth=2;align=center;verticalAlign=middle;fontFamily=Helvetica;fontSize=11;fontColor=default;startArrow=none;startFill=0;endArrow=none;endFill=0;exitX=0.5;exitY=0;exitDx=0;exitDy=0;" edge="1" parent="1" source="ER2RMjXM4kwSJIYZ8Odj-83" target="ER2RMjXM4kwSJIYZ8Odj-18">
          <mxGeometry relative="1" as="geometry">
            <mxPoint x="308" y="380" as="sourcePoint" />
            <mxPoint x="380" y="290" as="targetPoint" />
          </mxGeometry>
        </mxCell>
        <mxCell id="ER2RMjXM4kwSJIYZ8Odj-65" style="edgeStyle=none;shape=connector;rounded=0;orthogonalLoop=1;jettySize=auto;html=1;entryX=0.5;entryY=1;entryDx=0;entryDy=0;labelBackgroundColor=default;strokeColor=#C2C2C2;strokeWidth=2;align=center;verticalAlign=middle;fontFamily=Helvetica;fontSize=11;fontColor=default;startArrow=none;startFill=0;endArrow=none;endFill=0;exitX=0.5;exitY=0;exitDx=0;exitDy=0;" edge="1" parent="1" source="ER2RMjXM4kwSJIYZ8Odj-83" target="ER2RMjXM4kwSJIYZ8Odj-19">
          <mxGeometry relative="1" as="geometry">
            <mxPoint x="408" y="380" as="sourcePoint" />
            <mxPoint x="420" y="290" as="targetPoint" />
          </mxGeometry>
        </mxCell>
        <mxCell id="ER2RMjXM4kwSJIYZ8Odj-66" style="edgeStyle=none;shape=connector;rounded=0;orthogonalLoop=1;jettySize=auto;html=1;entryX=0.5;entryY=1;entryDx=0;entryDy=0;labelBackgroundColor=default;strokeColor=#C2C2C2;strokeWidth=2;align=center;verticalAlign=middle;fontFamily=Helvetica;fontSize=11;fontColor=default;startArrow=none;startFill=0;endArrow=none;endFill=0;exitX=0.5;exitY=0;exitDx=0;exitDy=0;" edge="1" parent="1" source="ER2RMjXM4kwSJIYZ8Odj-82" target="ER2RMjXM4kwSJIYZ8Odj-26">
          <mxGeometry relative="1" as="geometry">
            <mxPoint x="518" y="380" as="sourcePoint" />
            <mxPoint x="460" y="290" as="targetPoint" />
          </mxGeometry>
        </mxCell>
        <mxCell id="ER2RMjXM4kwSJIYZ8Odj-67" style="edgeStyle=none;shape=connector;rounded=0;orthogonalLoop=1;jettySize=auto;html=1;entryX=0.5;entryY=1;entryDx=0;entryDy=0;labelBackgroundColor=default;strokeColor=#C2C2C2;strokeWidth=2;align=center;verticalAlign=middle;fontFamily=Helvetica;fontSize=11;fontColor=default;startArrow=none;startFill=0;endArrow=none;endFill=0;exitX=0.5;exitY=0;exitDx=0;exitDy=0;" edge="1" parent="1" source="ER2RMjXM4kwSJIYZ8Odj-79" target="ER2RMjXM4kwSJIYZ8Odj-28">
          <mxGeometry relative="1" as="geometry">
            <mxPoint x="408" y="380" as="sourcePoint" />
            <mxPoint x="770" y="290" as="targetPoint" />
          </mxGeometry>
        </mxCell>
        <mxCell id="ER2RMjXM4kwSJIYZ8Odj-68" style="edgeStyle=none;shape=connector;rounded=0;orthogonalLoop=1;jettySize=auto;html=1;entryX=0.5;entryY=1;entryDx=0;entryDy=0;labelBackgroundColor=default;strokeColor=#C2C2C2;strokeWidth=2;align=center;verticalAlign=middle;fontFamily=Helvetica;fontSize=11;fontColor=default;startArrow=none;startFill=0;endArrow=none;endFill=0;exitX=0.5;exitY=0;exitDx=0;exitDy=0;" edge="1" parent="1" source="ER2RMjXM4kwSJIYZ8Odj-78" target="ER2RMjXM4kwSJIYZ8Odj-27">
          <mxGeometry relative="1" as="geometry">
            <mxPoint x="728" y="380" as="sourcePoint" />
            <mxPoint x="850" y="290" as="targetPoint" />
          </mxGeometry>
        </mxCell>
        <mxCell id="ER2RMjXM4kwSJIYZ8Odj-69" style="edgeStyle=none;shape=connector;rounded=0;orthogonalLoop=1;jettySize=auto;html=1;entryX=0.5;entryY=1;entryDx=0;entryDy=0;labelBackgroundColor=default;strokeColor=#C2C2C2;strokeWidth=2;align=center;verticalAlign=middle;fontFamily=Helvetica;fontSize=11;fontColor=default;startArrow=none;startFill=0;endArrow=none;endFill=0;exitX=0.5;exitY=0;exitDx=0;exitDy=0;" edge="1" parent="1" source="ER2RMjXM4kwSJIYZ8Odj-79" target="ER2RMjXM4kwSJIYZ8Odj-25">
          <mxGeometry relative="1" as="geometry">
            <mxPoint x="623" y="380" as="sourcePoint" />
            <mxPoint x="810" y="290" as="targetPoint" />
          </mxGeometry>
        </mxCell>
        <mxCell id="ER2RMjXM4kwSJIYZ8Odj-70" style="edgeStyle=none;shape=connector;rounded=0;orthogonalLoop=1;jettySize=auto;html=1;entryX=0.5;entryY=1;entryDx=0;entryDy=0;labelBackgroundColor=default;strokeColor=#C2C2C2;strokeWidth=2;align=center;verticalAlign=middle;fontFamily=Helvetica;fontSize=11;fontColor=default;startArrow=none;startFill=0;endArrow=none;endFill=0;" edge="1" parent="1" target="ER2RMjXM4kwSJIYZ8Odj-24">
          <mxGeometry relative="1" as="geometry">
            <mxPoint x="720" y="370" as="sourcePoint" />
            <mxPoint x="720" y="290" as="targetPoint" />
          </mxGeometry>
        </mxCell>
        <mxCell id="ER2RMjXM4kwSJIYZ8Odj-71" style="edgeStyle=none;shape=connector;rounded=0;orthogonalLoop=1;jettySize=auto;html=1;entryX=0.5;entryY=1;entryDx=0;entryDy=0;labelBackgroundColor=default;strokeColor=#C2C2C2;strokeWidth=2;align=center;verticalAlign=middle;fontFamily=Helvetica;fontSize=11;fontColor=default;startArrow=none;startFill=0;endArrow=none;endFill=0;exitX=0.5;exitY=0;exitDx=0;exitDy=0;" edge="1" parent="1" source="ER2RMjXM4kwSJIYZ8Odj-81" target="ER2RMjXM4kwSJIYZ8Odj-20">
          <mxGeometry relative="1" as="geometry">
            <mxPoint x="730" y="380" as="sourcePoint" />
            <mxPoint x="680" y="290" as="targetPoint" />
          </mxGeometry>
        </mxCell>
        <mxCell id="ER2RMjXM4kwSJIYZ8Odj-72" style="edgeStyle=none;shape=connector;rounded=0;orthogonalLoop=1;jettySize=auto;html=1;entryX=0.5;entryY=1;entryDx=0;entryDy=0;labelBackgroundColor=default;strokeColor=#C2C2C2;strokeWidth=2;align=center;verticalAlign=middle;fontFamily=Helvetica;fontSize=11;fontColor=default;startArrow=none;startFill=0;endArrow=none;endFill=0;exitX=0.5;exitY=0;exitDx=0;exitDy=0;" edge="1" parent="1" source="ER2RMjXM4kwSJIYZ8Odj-78" target="ER2RMjXM4kwSJIYZ8Odj-23">
          <mxGeometry relative="1" as="geometry">
            <mxPoint x="730" y="380" as="sourcePoint" />
            <mxPoint x="680" y="290" as="targetPoint" />
          </mxGeometry>
        </mxCell>
        <mxCell id="ER2RMjXM4kwSJIYZ8Odj-73" style="edgeStyle=none;shape=connector;rounded=0;orthogonalLoop=1;jettySize=auto;html=1;entryX=0.5;entryY=1;entryDx=0;entryDy=0;labelBackgroundColor=default;strokeColor=#C2C2C2;strokeWidth=2;align=center;verticalAlign=middle;fontFamily=Helvetica;fontSize=11;fontColor=default;startArrow=none;startFill=0;endArrow=none;endFill=0;" edge="1" parent="1" target="ER2RMjXM4kwSJIYZ8Odj-21">
          <mxGeometry relative="1" as="geometry">
            <mxPoint x="400" y="370" as="sourcePoint" />
            <mxPoint x="510" y="290" as="targetPoint" />
          </mxGeometry>
        </mxCell>
        <mxCell id="ER2RMjXM4kwSJIYZ8Odj-78" value="&lt;font color=&quot;#ffffff&quot;&gt;IoT Platform&lt;/font&gt;" style="rounded=0;whiteSpace=wrap;html=1;fillColor=#595959;strokeColor=#595959;" vertex="1" parent="1">
          <mxGeometry x="570" y="369.5" width="85" height="50" as="geometry" />
        </mxCell>
        <mxCell id="ER2RMjXM4kwSJIYZ8Odj-79" value="&lt;font color=&quot;#ffffff&quot;&gt;...&lt;/font&gt;" style="rounded=0;whiteSpace=wrap;html=1;fillColor=#595959;strokeColor=#595959;" vertex="1" parent="1">
          <mxGeometry x="675" y="369.5" width="85" height="50" as="geometry" />
        </mxCell>
        <mxCell id="ER2RMjXM4kwSJIYZ8Odj-80" value="&lt;font color=&quot;#ffffff&quot;&gt;ESB&lt;/font&gt;" style="rounded=0;whiteSpace=wrap;html=1;fillColor=#595959;strokeColor=#595959;" vertex="1" parent="1">
          <mxGeometry x="147.5" y="369.5" width="85" height="50" as="geometry" />
        </mxCell>
        <mxCell id="ER2RMjXM4kwSJIYZ8Odj-81" value="&lt;font color=&quot;#ffffff&quot;&gt;IPaaS&lt;/font&gt;" style="rounded=0;whiteSpace=wrap;html=1;fillColor=#595959;strokeColor=#595959;" vertex="1" parent="1">
          <mxGeometry x="255" y="369.5" width="85" height="50" as="geometry" />
        </mxCell>
        <mxCell id="ER2RMjXM4kwSJIYZ8Odj-82" value="&lt;font color=&quot;#ffffff&quot;&gt;API Management&lt;/font&gt;" style="rounded=0;whiteSpace=wrap;html=1;fillColor=#595959;strokeColor=#595959;" vertex="1" parent="1">
          <mxGeometry x="355" y="369.5" width="85" height="50" as="geometry" />
        </mxCell>
        <mxCell id="ER2RMjXM4kwSJIYZ8Odj-83" value="&lt;font color=&quot;#ffffff&quot;&gt;Data Management&lt;/font&gt;" style="rounded=0;whiteSpace=wrap;html=1;fillColor=#595959;strokeColor=#595959;" vertex="1" parent="1">
          <mxGeometry x="465" y="369.5" width="85" height="50" as="geometry" />
        </mxCell>
        <mxCell id="ER2RMjXM4kwSJIYZ8Odj-84" value="&lt;font color=&quot;#ffffff&quot;&gt;T1, T2, ...&lt;/font&gt;" style="rounded=0;whiteSpace=wrap;html=1;fillColor=#C2C2C2;strokeColor=#C2C2C2;" vertex="1" parent="1">
          <mxGeometry x="147.5" y="430" width="85" height="50" as="geometry" />
        </mxCell>
        <mxCell id="ER2RMjXM4kwSJIYZ8Odj-85" value="&lt;font color=&quot;#ffffff&quot;&gt;T3, T4, ...&lt;/font&gt;" style="rounded=0;whiteSpace=wrap;html=1;fillColor=#C2C2C2;strokeColor=#C2C2C2;" vertex="1" parent="1">
          <mxGeometry x="255" y="431.75" width="85" height="50" as="geometry" />
        </mxCell>
        <mxCell id="ER2RMjXM4kwSJIYZ8Odj-86" value="&lt;font color=&quot;#ffffff&quot;&gt;T5, T6, ...&lt;/font&gt;" style="rounded=0;whiteSpace=wrap;html=1;fillColor=#C2C2C2;strokeColor=#C2C2C2;" vertex="1" parent="1">
          <mxGeometry x="355" y="430" width="85" height="50" as="geometry" />
        </mxCell>
        <mxCell id="ER2RMjXM4kwSJIYZ8Odj-87" value="&lt;font color=&quot;#ffffff&quot;&gt;T7, T8, ...&lt;/font&gt;" style="rounded=0;whiteSpace=wrap;html=1;fillColor=#C2C2C2;strokeColor=#C2C2C2;" vertex="1" parent="1">
          <mxGeometry x="465" y="430" width="85" height="50" as="geometry" />
        </mxCell>
        <mxCell id="ER2RMjXM4kwSJIYZ8Odj-88" value="&lt;font color=&quot;#ffffff&quot;&gt;T9, T10, ...&lt;/font&gt;" style="rounded=0;whiteSpace=wrap;html=1;fillColor=#C2C2C2;strokeColor=#C2C2C2;" vertex="1" parent="1">
          <mxGeometry x="570" y="431.75" width="85" height="50" as="geometry" />
        </mxCell>
        <mxCell id="ER2RMjXM4kwSJIYZ8Odj-89" value="&lt;font color=&quot;#ffffff&quot;&gt;...&lt;/font&gt;" style="rounded=0;whiteSpace=wrap;html=1;fillColor=#C2C2C2;strokeColor=#C2C2C2;" vertex="1" parent="1">
          <mxGeometry x="675" y="431.75" width="85" height="50" as="geometry" />
        </mxCell>
        <mxCell id="ER2RMjXM4kwSJIYZ8Odj-90" value="" style="rounded=0;whiteSpace=wrap;html=1;fillColor=none;strokeColor=#EA6B66;dashed=1;strokeWidth=3;" vertex="1" parent="1">
          <mxGeometry x="142" y="361.5" width="625" height="130.5" as="geometry" />
        </mxCell>
        <mxCell id="ER2RMjXM4kwSJIYZ8Odj-91" style="edgeStyle=none;shape=connector;rounded=0;orthogonalLoop=1;jettySize=auto;html=1;entryX=0.5;entryY=1;entryDx=0;entryDy=0;labelBackgroundColor=default;strokeColor=#C2C2C2;strokeWidth=2;align=center;verticalAlign=middle;fontFamily=Helvetica;fontSize=11;fontColor=default;startArrow=none;startFill=0;endArrow=none;endFill=0;exitX=0.5;exitY=0;exitDx=0;exitDy=0;" edge="1" parent="1" source="ER2RMjXM4kwSJIYZ8Odj-78" target="ER2RMjXM4kwSJIYZ8Odj-22">
          <mxGeometry relative="1" as="geometry">
            <mxPoint x="410" y="380" as="sourcePoint" />
            <mxPoint x="550" y="290" as="targetPoint" />
          </mxGeometry>
        </mxCell>
      </root>
    </mxGraphModel>
  </diagram>
</mxfile>
